PathFileType	4	(X/Y/Z)	62_2_29_p1_0-526_filt_butterworth.trc
DataRate	CameraRate	NumFrames	NumMarkers	Units	OrigDataRate	OrigDataStartFrame	OrigNumFrames
51.0	51.0	5	27	m	51.0	394	526
Frame#	Time	RHip			RKnee			RAnkle			RBigToe			RSmallToe			RHeel			LHip			LKnee			LAnkle			LBigToe			LSmallToe			LHeel			Neck			Head			Nose			RShoulder			RElbow			RWrist			RThumb			RIndex			RPinky			LShoulder			LElbow			LWrist			LThumb			LIndex			LPinky			
		X1	Y1	Z1	X2	Y2	Z2	X3	Y3	Z3	X4	Y4	Z4	X5	Y5	Z5	X6	Y6	Z6	X7	Y7	Z7	X8	Y8	Z8	X9	Y9	Z9	X10	Y10	Z10	X11	Y11	Z11	X12	Y12	Z12	X13	Y13	Z13	X14	Y14	Z14	X15	Y15	Z15	X16	Y16	Z16	X17	Y17	Z17	X18	Y18	Z18	X19	Y19	Z19	X20	Y20	Z20	X21	Y21	Z21	X22	Y22	Z22	X23	Y23	Z23	X24	Y24	Z24	X25	Y25	Z25	X26	Y26	Z26	X27	Y27	Z27	
394	7.725490196078431	0.3127604846761136	0.3163693682938693	0.6450267591632415	0.3039979564819828	-0.0790712683110148	0.778913752115195	0.3064680030878568	-0.46418048480964885	0.8849450379066122	0.2878746758421251	-0.5582429831647063	0.7705032236636434	0.35991075869445766	-0.537725491802582	0.7760504261248056	0.2976633103904373	-0.5247265894561919	0.9429575852388999	0.14154060288056183	0.29847076732833583	0.7529687547749531	0.1654817196074683	-0.07140150059561895	0.7999683350150313	0.15591388276112897	-0.4567604629771893	0.9234142216764409	0.11673525748049321	-0.5215787728327351	0.743913454223767	0.08130291532588003	-0.5176702807827794	0.8195394612043486	0.18949596441523042	-0.5163636886224349	0.9780105826127709	0.15365434949718657	0.8630933950397842	0.5517723285966556	0.10161404693023518	1.0924217013393294	0.46375936411265395	0.07971926574681538	0.9689659113349768	0.432628172264671	0.2626272892573415	0.7836786985029359	0.49196325254541967	0.0848709872681529	0.6210816982368881	0.3178191096760536	-0.12934218786041418	0.697167451328882	0.23762711098188655	-0.25549851034521537	0.7275045819515452	0.2153097487663327	-0.26978521037916925	0.7326145712841992	0.2149762750555821	-0.23570779845667106	0.7040349447766113	0.21020954999033398	0.05865096913863706	0.7862526305155274	0.6756769224077122	0.04636151699550971	0.5798939248363988	0.7101245788366153	-0.06827009982639363	0.5760371242989399	0.5102205047461356	-0.10974282472468685	0.5885842136565576	0.45576489864207104	-0.14606699828554537	0.5777448026862212	0.41300056783349665	-0.1077889178407577	0.5229633979038024	0.45324716278623306	
395	7.745098039215686	0.3112697608478582	0.31417072723749867	0.6474422119810634	0.3033960621560589	-0.07871283738563367	0.7772877314193433	0.30620714027951884	-0.46416171028605024	0.8857615486918181	0.2872410171139129	-0.5576917664714246	0.7697918930059401	0.3587868122934187	-0.5373110758027443	0.7760194785806819	0.297586304717334	-0.524432798828459	0.9432136191514763	0.1414624011761937	0.29655690806994955	0.7558410069380763	0.165080930143135	-0.07106472612686815	0.8002660158575448	0.15617600100760123	-0.4566663234574021	0.9228339955358746	0.11720365408137534	-0.520787196875321	0.7451962359378257	0.08172953217808793	-0.5155715623192347	0.8173949859871037	0.1894327054068522	-0.5158987030569006	0.9776266828578378	0.1516892268588994	0.8610976949512247	0.5495867420010684	0.09590102383506245	1.0887098962852677	0.4589021665888655	0.07616057958653266	0.9670813429537551	0.4297101063309643	0.25679575374512986	0.7818828924770929	0.490953832730566	0.07692368114417297	0.6207967764341428	0.31250693943387087	-0.14129622834598687	0.6892808233509861	0.23691145419409665	-0.2645747231336623	0.7083056394583229	0.20366942890232892	-0.2802597098923322	0.7125238774169674	0.20443044236766247	-0.24345628808187628	0.6863739905087483	0.2070501057781371	0.05790508561654614	0.7840952874906539	0.673135111798369	0.045810916667019586	0.5796460771022253	0.7106854418391693	-0.07477061376525537	0.5717076834368121	0.5080065903083839	-0.11687515205667522	0.5855171367849082	0.4496651884434655	-0.1483405952765444	0.5709073632739002	0.4119810038442727	-0.10972489824149263	0.519704665625245	0.4541122653350448	
396	7.764705882352941	0.30951077203971195	0.3119792352663461	0.6493771877627765	0.3025734494119787	-0.07824325483825584	0.7747936122584106	0.30600117915024777	-0.46394227222847734	0.8860521072654581	0.28711578490275413	-0.5572632942420999	0.7690468749905316	0.35766649437000986	-0.5367350423196947	0.7756975520775203	0.29743909344231156	-0.5241813101025081	0.9435873238306761	0.1413464874920353	0.2949355638599589	0.7590735692648211	0.16451981170251287	-0.07051335058856795	0.7995508210087615	0.1565503717209514	-0.4571359795924526	0.9225831937286881	0.11733445939158725	-0.5199861107476795	0.7458291241046078	0.08193077799321258	-0.5143506177118496	0.8171351373172295	0.1892602156515525	-0.5156122905692045	0.9770848696828439	0.14971594984441386	0.859615111085417	0.5467400666063237	0.09069348835550686	1.085338290768802	0.4568263966470897	0.07371936810817936	0.9651675891727673	0.4279116070518704	0.2502652115169984	0.7804129901990888	0.4886363420033864	0.07140512597862622	0.6199466003842921	0.3090773631492554	-0.15221351819040418	0.6813180715184329	0.23700883357201913	-0.2717562686434144	0.6909989524252556	0.19466294585944638	-0.28889259499165565	0.6942540549809154	0.19547125221889938	-0.24769848365033387	0.6686017381838145	0.2057837121019264	0.057114350852478374	0.7824809540160804	0.6695888452799728	0.04419261175605611	0.5796734157394187	0.7084462224815968	-0.08150537027872087	0.56818563280741	0.5056732759116762	-0.12619485967606459	0.5814443544293444	0.44246311644453895	-0.15020579602146442	0.5649199583790788	0.41136620129712725	-0.11359009345071647	0.5178287009114968	0.45351821833357403	
397	7.784313725490196	0.30761566974438026	0.3098505614920265	0.6508883829306742	0.30150547953988766	-0.07770307981614916	0.7715376084077576	0.3058168907877504	-0.46344545663736314	0.8855763976280764	0.28751889098150235	-0.5570070647499108	0.768517199524476	0.3567335856174654	-0.5362698826278275	0.7754206200609534	0.2971360874426147	-0.5237001333303651	0.9434871589607994	0.141043744278835	0.2934403527501092	0.7624751207333631	0.16388815861988773	-0.06996981624508841	0.7980528499732407	0.1569415655016673	-0.45796948132783655	0.9225069839052399	0.11719699851138282	-0.5194390521881376	0.7459149703986978	0.08184661602916832	-0.5145252788179692	0.8191050244181134	0.18899496009941377	-0.5154947726841277	0.9763115786887576	0.14780710535710534	0.8582385358974037	0.5439240440483285	0.08584947501432744	1.0826093008837412	0.4569590655343578	0.07169468915350585	0.9628427508740468	0.42671470843173703	0.2436469515162944	0.7791431745009095	0.4847556010242408	0.06823621636150076	0.6185969804531517	0.3081862772152084	-0.16138662694790534	0.6729751370969069	0.2367529884496358	-0.2775384157706313	0.6757683245170976	0.1890388938652332	-0.29550154433380504	0.677913655638683	0.18905149126809348	-0.24963238894054035	0.6514637752574278	0.20515064513062045	0.05623518862392554	0.780752902560668	0.66600921468615	0.040572387396026505	0.5792972137475753	0.7034169245537403	-0.08819445318947805	0.5654059992564535	0.5042879399313764	-0.13700241235905522	0.5767381420112122	0.4348744248199499	-0.1526216775526071	0.5599953603481937	0.41146277507454304	-0.11955061476982884	0.5164755480980275	0.4518003743883162	
398	7.803921568627451	0.305782698518604	0.30774032704777765	0.652205068228117	0.3001848013357471	-0.07716585079710547	0.7677588590924112	0.3057204645923032	-0.4627647613403532	0.8842645452056288	0.28827488821868374	-0.5567546078525667	0.768243007533124	0.3561739289211905	-0.5360351999468088	0.7750966526133423	0.2968009983619088	-0.5230531106558504	0.9426289497049829	0.14055380733691403	0.2918499567447771	0.7655426973952735	0.16324307965620383	-0.0696598116262761	0.7959645906859759	0.15726497621430152	-0.4589013649370158	0.9223856148504949	0.11683324518717401	-0.5192957554112019	0.7454905810224366	0.081576847829817	-0.5158076628245528	0.8224829926218904	0.18862900831010299	-0.5155623580699081	0.9753117648130765	0.14572079453332873	0.8564680160788699	0.5414772805540293	0.08113644901748387	1.0805682735852777	0.4586046919709507	0.0690830670756744	0.9598515531270331	0.42505045207047776	0.23786139206152834	0.7779123976347784	0.48007699055517733	0.06663137965791222	0.6165726736001664	0.3089012880969275	-0.16809216686766376	0.6641277768676715	0.23551254655451587	-0.28208580423788054	0.6623258116305605	0.18690675041483054	-0.2997833010024845	0.6630235090599893	0.18543157153130402	-0.2507034890130432	0.6361541404778752	0.2042095151250904	0.055121049353247534	0.7783909119059699	0.663559640058663	0.03456725246341163	0.5781350972158777	0.6962611496456217	-0.09419479917547839	0.56278105261888	0.5046379982460348	-0.14927551520509205	0.5728916930937262	0.4238936934426568	-0.15529085189522956	0.5557793419514636	0.4119852426193908	-0.12652744931758886	0.5144833669937947	0.4497009093866625	
